<svg xmlns="http://www.w3.org/2000/svg" xmlns:xlink="http://www.w3.org/1999/xlink" width="16" height="16"><defs><path id="a" d="M318.46 2106.92c0 .97-.7 1.69-1.9 1.69-1.12 0-1.87-.72-1.87-1.7 0-.99.75-1.7 1.9-1.7s1.85.71 1.87 1.7zM315 2121v-11.02h3V2121zm5.02-11.02h2.68l.32 1.12c.45-.71 1.4-1.5 3.23-1.5 2.22 0 3.76 1.3 3.76 4.49v6.88h-3v-6.4c0-1.4-.97-2.35-2.2-2.35-.92 0-1.46.64-1.7 1.26-.1.22-.12.53-.12.84v6.65h-2.97z"/></defs><use fill="#fff" xlink:href="#a" transform="translate(-314 -2105)"/></svg>