<svg xmlns="http://www.w3.org/2000/svg" xmlns:xlink="http://www.w3.org/1999/xlink" width="16" height="12"><defs><path id="a" d="M358.6 2110.18c.5.27 6.25 4 6.5 4.15.25.14.58.2.9.2.33 0 .66-.06.9-.2.26-.14 6.01-3.88 6.5-4.15.49-.27.95-1.12.05-1.12h-14.9c-.89 0-.43.85.06 1.12zm15 2.06c-.55.3-6.35 3.97-6.7 4.15-.33.18-.57.2-.9.2-.32 0-.56-.02-.9-.2-.34-.18-6.14-3.85-6.7-4.15-.39-.21-.38.03-.38.22v7.56c0 .43.55.99.99.99H373c.43 0 1-.56 1-1v-7.55c0-.19 0-.43-.4-.22z"/></defs><use fill="#fff" xlink:href="#a" transform="translate(-358 -2109)"/></svg>