<svg xmlns="http://www.w3.org/2000/svg" xmlns:xlink="http://www.w3.org/1999/xlink" width="17" height="14" viewBox="0 0 17 14"><defs><path id="232ra" d="M287.98 2109.66c-.62.28-1.3.47-2 .55a3.54 3.54 0 0 0 1.54-1.95c-.68.4-1.42.7-2.22.85a3.45 3.45 0 0 0-2.54-1.11 3.5 3.5 0 0 0-3.39 4.34 9.83 9.83 0 0 1-7.17-3.7 3.56 3.56 0 0 0 1.07 4.72 3.42 3.42 0 0 1-1.57-.44v.05c0 1.71 1.2 3.14 2.79 3.46a3.42 3.42 0 0 1-1.57.06 3.5 3.5 0 0 0 3.25 2.46 6.92 6.92 0 0 1-5.15 1.46 9.74 9.74 0 0 0 5.33 1.6c6.4 0 9.9-5.4 9.9-10.07v-.45a7.13 7.13 0 0 0 1.73-1.83z"/></defs><g><g transform="translate(-271 -2108)"><use fill="#fff" xlink:href="#232ra"/></g></g></svg>